<svg width="280" height="280" viewBox="0 0 280 280" fill="none" xmlns="http://www.w3.org/2000/svg">
<circle cx="132" cy="144" r="102" fill="#FBEB3B"/>
<rect x="80.4922" y="53.75" width="141.355" height="98.4988" fill="white" stroke="#252525" stroke-width="1.5" stroke-linejoin="round"/>
<rect x="86.2734" y="59.9541" width="129.773" height="86.0831" fill="#252525" stroke="#252525" stroke-width="1.5" stroke-linejoin="round"/>
<path d="M58.2938 197.361L80.6115 152.903H222.033L241.185 197.361H58.2938Z" fill="white" stroke="#252525" stroke-width="1.5" stroke-linejoin="round"/>
<path d="M242.325 203.362H57V198.127H242.325V203.362Z" fill="#252525"/>
<path d="M80.7599 190.041L91.0096 158.6H210.696L221.543 190.041H80.7599Z" fill="white" stroke="#252525" stroke-width="1.5" stroke-linejoin="round"/>
<path d="M89.2109 164.042L212.427 164.042" stroke="#252525" stroke-width="1.5" stroke-linecap="round"/>
<path d="M86.7812 171.867L214.978 171.867" stroke="#252525" stroke-width="1.5" stroke-linecap="round"/>
<path d="M83.8984 180.546L218.101 180.546" stroke="#252525" stroke-width="1.5" stroke-linecap="round"/>
<path d="M100.695 158.681L93.4544 190.196" stroke="#252525" stroke-width="1.5" stroke-linecap="round"/>
<path d="M112.703 158.681L107.437 190.196" stroke="#252525" stroke-width="1.5" stroke-linecap="round"/>
<path d="M123.734 158.681L120.279 190.197" stroke="#252525" stroke-width="1.5" stroke-linecap="round"/>
<path d="M134.094 158.681L133.353 190.197" stroke="#252525" stroke-width="1.5" stroke-linecap="round"/>
<path d="M145.203 158.681L145.039 190.197" stroke="#252525" stroke-width="1.5" stroke-linecap="round"/>
<path d="M157.031 158.681L156.8 190.197" stroke="#252525" stroke-width="1.5" stroke-linecap="round"/>
<path d="M168.031 158.681L169.974 190.197" stroke="#252525" stroke-width="1.5" stroke-linecap="round"/>
<path d="M179.547 158.681L182.23 190.197" stroke="#252525" stroke-width="1.5" stroke-linecap="round"/>
<path d="M189.398 158.681L196.136 190.197" stroke="#252525" stroke-width="1.5" stroke-linecap="round"/>
<path d="M200.5 158.681L209.218 190.197" stroke="#252525" stroke-width="1.5" stroke-linecap="round"/>
<path d="M198.925 89.2885C195.173 88.2846 193.218 88.4817 189.805 89.2885V79.6152M189.805 79.6152V69.9419C193.356 70.5834 195.366 70.6328 198.925 69.9419M189.805 79.6152H198.925" stroke="#71E76E" stroke-width="1.5" stroke-linecap="round" stroke-linejoin="round"/>
<path d="M161.407 69.9569C153.76 69.3661 152.187 86.3784 157.456 88.9605C164.042 92.1882 169.055 70.5478 161.407 69.9569Z" stroke="#71E76E" stroke-width="1.5"/>
<path d="M172.617 89.2885V69.9419C172.617 69.9419 182.567 70.5104 182.425 79.8995C182.282 89.2885 172.617 89.2885 172.617 89.2885Z" stroke="#71E76E" stroke-width="1.5" stroke-linecap="round" stroke-linejoin="round"/>
<path d="M146.983 73.601C141.714 67.0156 135.786 69.3835 134.469 80.1851C132.823 93.6872 146.983 89.0788 146.983 85.7856" stroke="#71E76E" stroke-width="1.5" stroke-linecap="round" stroke-linejoin="round"/>
<path d="M97.0938 89.2939H121.516" stroke="#71E76E" stroke-width="1.5" stroke-linecap="round"/>
<path d="M169.742 246.757C168.662 246.778 167.86 246.798 167.337 246.818C166.805 246.812 166.243 246.704 165.65 246.493C164.613 246.474 163.735 246.336 163.016 246.08C162.29 245.799 161.537 245.428 160.756 244.968L158.829 243.713L158.213 242.646C158.402 242.533 158.653 242.304 158.966 241.958C159.271 241.587 159.445 241.381 159.489 241.34C159.7 241.025 159.949 240.699 160.237 240.361C160.517 239.997 160.909 239.544 161.413 239.001C161.917 238.458 162.594 237.751 163.444 236.88C164.361 236.044 164.981 235.424 165.305 235.02C165.628 234.615 165.911 234.264 166.156 233.967C166.296 233.785 166.457 233.583 166.641 233.36C166.849 233.13 167.009 233.012 167.118 233.007C167.264 232.935 167.382 232.912 167.474 232.94C167.559 232.943 167.667 232.979 167.8 233.05C168.082 233.244 168.362 233.34 168.64 233.339C168.937 233.305 169.116 233.39 169.178 233.594C169.178 233.594 169.157 233.712 169.117 233.947C169.069 234.156 168.963 234.356 168.797 234.545C168.476 234.866 168.13 235.194 167.758 235.529C167.386 235.865 166.923 236.312 166.368 236.871C165.813 237.429 165.065 238.227 164.126 239.265C163.561 239.882 163.053 240.412 162.602 240.855C162.177 241.291 161.863 241.679 161.659 242.019C161.474 242.326 161.457 242.638 161.609 242.954C161.993 243.395 162.882 243.752 164.275 244.026C165.693 244.293 167.461 244.425 169.578 244.424C170.314 244.368 170.975 244.39 171.563 244.491C172.151 244.591 172.573 244.742 172.829 244.943C173.085 245.144 173.065 245.401 172.77 245.713C172.65 245.777 172.461 245.89 172.204 246.052C171.964 246.18 171.644 246.319 171.244 246.469C170.861 246.585 170.36 246.681 169.742 246.757ZM176.996 250.785C176.238 251.043 175.68 250.766 175.323 249.955C174.965 249.144 174.891 247.982 175.101 246.469C175.169 246.142 175.241 245.827 175.317 245.526C175.385 245.199 175.404 244.942 175.376 244.756C175.406 244.579 175.49 244.122 175.628 243.383C175.784 242.611 175.965 241.693 176.172 240.627C176.403 239.553 176.636 238.438 176.87 237.28C177.13 236.114 177.37 235.024 177.592 234.01C177.806 232.969 177.99 232.106 178.143 231.418C178.297 230.73 178.392 230.353 178.427 230.287C178.537 230.281 178.62 230.187 178.676 230.003C178.749 229.785 178.771 229.583 178.743 229.397C178.732 229.177 178.755 228.933 178.813 228.665C178.897 228.389 178.982 228.21 179.068 228.128C179.081 227.985 179.102 227.825 179.132 227.649C179.188 227.465 179.213 227.318 179.207 227.208C179.202 227.098 179.226 226.993 179.279 226.894C179.325 226.768 179.345 226.651 179.339 226.541C179.474 226.249 179.633 225.811 179.818 225.225C179.995 224.614 180.191 223.928 180.406 223.166C180.646 222.397 180.87 221.618 181.077 220.831C181.309 220.036 181.515 219.29 181.694 218.595C181.874 217.9 182.016 217.313 182.122 216.835C182.228 216.357 182.278 216.063 182.273 215.954C182.233 215.548 182.442 215.317 182.899 215.262C182.995 215.121 183.192 215.034 183.488 215C183.488 215 183.533 215.056 183.623 215.168C183.73 215.247 183.912 215.387 184.168 215.588C184.416 215.763 184.562 215.97 184.607 216.207C184.676 216.437 184.715 216.704 184.724 217.007C184.774 217.355 184.773 217.675 184.723 217.969C184.665 218.238 184.536 218.639 184.336 219.173C184.128 219.682 183.815 220.488 183.397 221.59C183.314 221.866 183.217 222.146 183.108 222.43C183.017 222.68 182.922 222.918 182.823 223.143C182.742 223.335 182.683 223.507 182.645 223.657C182.599 223.783 182.584 223.871 182.599 223.922C182.605 224.032 182.562 224.212 182.471 224.462C182.397 224.68 182.327 224.952 182.259 225.279C182.16 225.504 182.037 225.834 181.89 226.269C181.743 226.703 181.588 227.155 181.423 227.623C181.284 228.083 181.159 228.497 181.048 228.865C180.929 229.208 180.877 229.405 180.892 229.456C180.89 229.54 180.879 229.641 180.859 229.758C180.864 229.868 180.815 229.981 180.71 230.096C180.6 230.101 180.543 230.188 180.539 230.357C180.552 230.492 180.558 230.56 180.558 230.56C180.62 230.764 180.478 231.49 180.132 232.738C180.006 233.333 179.817 234.226 179.566 235.417C179.339 236.601 179.084 237.918 178.8 239.37C178.533 240.788 178.276 242.19 178.027 243.575C177.771 244.935 177.557 246.114 177.387 247.113C177.242 248.105 177.186 248.749 177.22 249.045C177.296 249.663 177.323 250.073 177.3 250.274C177.286 250.502 177.184 250.672 176.996 250.785ZM192.595 240.327C192.449 240.399 192.331 240.421 192.239 240.393C192.139 240.34 192.035 240.274 191.928 240.195C191.621 240.009 191.315 239.921 191.011 239.929C190.725 239.905 190.593 239.791 190.615 239.59C190.615 239.59 190.639 239.485 190.687 239.275C190.735 239.066 190.825 238.857 190.957 238.65C191.329 238.314 191.709 238.004 192.096 237.719C192.501 237.401 193.002 236.985 193.598 236.47C194.22 235.947 195.029 235.214 196.024 234.271C196.623 233.671 197.142 233.179 197.583 232.795C198.049 232.402 198.388 232.049 198.599 231.734C198.828 231.386 198.879 231.05 198.753 230.726C198.394 230.278 197.532 229.87 196.167 229.504C194.802 229.138 193.041 228.892 190.885 228.765C190.178 228.729 189.526 228.648 188.93 228.522C188.335 228.396 187.922 228.229 187.691 228.02C187.453 227.786 187.498 227.522 187.827 227.227C187.972 227.155 188.169 227.067 188.416 226.964C188.656 226.836 188.984 226.723 189.4 226.624C189.834 226.493 190.358 226.431 190.974 226.439C192.019 226.485 192.794 226.514 193.3 226.528C193.831 226.534 194.401 226.668 195.01 226.929C196.019 227.041 196.878 227.254 197.586 227.569C198.295 227.883 199.025 228.317 199.778 228.869L201.614 230.235L202.153 231.325C201.957 231.412 201.689 231.633 201.351 231.986C201.004 232.314 200.809 232.499 200.766 232.54C200.547 232.829 200.278 233.134 199.957 233.454C199.636 233.774 199.203 234.184 198.658 234.684C198.138 235.176 197.433 235.836 196.541 236.664C195.542 237.412 194.881 237.989 194.558 238.394C194.235 238.798 193.922 239.144 193.619 239.431C193.479 239.613 193.301 239.806 193.084 240.011C192.893 240.208 192.73 240.314 192.595 240.327Z" fill="#252525"/>
<path d="M31.5225 77.8558C31.1337 77.6418 30.9773 77.6051 31.0535 77.7458C31.0535 77.7458 30.9641 77.7488 30.7853 77.7546C30.63 77.7478 30.4493 77.694 30.2431 77.5934C29.9159 77.437 29.6589 77.2426 29.4723 77.01C29.3219 76.7882 29.1568 76.4834 28.9771 76.0955C28.8501 75.861 28.7295 75.6383 28.6152 75.4272C28.5009 75.2162 28.4437 75.1107 28.4437 75.1107C28.4975 74.9299 28.4917 74.7511 28.4262 74.5743C28.3608 74.3974 28.2953 74.2206 28.2299 74.0438C28.1752 73.8308 28.0829 73.3804 27.953 72.6926C27.8466 71.992 27.7329 71.25 27.6118 70.4664C27.478 69.6594 27.4033 69.0175 27.3877 68.5408C27.379 67.9087 27.3351 67.2956 27.256 66.7016C27.1642 66.0841 27.0549 65.6581 26.9279 65.4236C26.7247 65.0485 26.3891 64.8208 25.9211 64.7406C25.4766 64.6478 24.9593 64.7005 24.3692 64.8988C23.6657 65.2797 23.2471 65.0667 23.1133 64.2597C23.0547 63.9275 23.1217 63.6032 23.3142 63.2866C23.5301 62.9574 23.8159 62.7571 24.1715 62.6859C24.5233 62.4954 24.8267 62.1036 25.0817 61.5106C25.3602 60.9049 25.54 60.201 25.6212 59.3989C25.7258 58.5841 25.6932 57.7678 25.5233 56.9501C25.3983 56.0473 25.2157 55.2061 24.9754 54.4264C24.7224 53.6233 24.3317 52.6219 23.8033 51.4221C23.3784 50.4695 23.0829 49.6439 22.9169 48.9453C22.7616 48.2106 22.7148 47.5082 22.7764 46.838C22.8488 46.1316 23.0203 45.3564 23.291 44.5123C23.3907 43.9124 23.5656 43.4234 23.8158 43.0454C24.0659 42.6673 24.2819 42.3381 24.4636 42.0577C24.831 41.6161 25.2492 41.2684 25.7182 41.0144C26.1872 40.7604 26.5355 40.6476 26.7631 40.676C26.9057 40.6594 27.0928 40.7248 27.3244 40.8724C27.5794 41.0072 27.7992 41.1611 27.9838 41.3341C28.1919 41.4943 28.2734 41.6169 28.2285 41.7019C28.1113 41.7654 27.9779 41.8831 27.8284 42.0551C27.6662 42.2036 27.4092 42.373 27.0575 42.5635C26.6628 42.8986 26.3232 43.2796 26.0389 43.7065C25.778 44.1207 25.521 44.6541 25.2679 45.3067C25.1594 46.0024 25.0821 46.5597 25.0362 46.9788C24.9902 47.398 25.0644 47.843 25.2588 48.3139C25.3232 48.8249 25.3901 49.2284 25.4595 49.5244C25.5288 49.8205 25.6353 50.1571 25.7788 50.5342C25.9224 50.9113 26.1432 51.4589 26.4411 52.1771C26.7517 52.9186 26.9915 53.5014 27.1605 53.9255C27.3295 54.3495 27.4623 54.7628 27.559 55.1653C27.6557 55.5678 27.7328 56.1022 27.7904 56.7686C27.9554 57.8013 28.01 58.7421 27.9543 59.5911C27.9219 60.4274 27.7631 61.2261 27.4777 61.9871C27.2061 62.4375 27.0722 62.7223 27.0761 62.8415C27.1035 62.948 27.2925 63.073 27.6432 63.2167C27.694 63.3105 27.8415 63.4429 28.0858 63.6139C28.3173 63.7614 28.4966 63.9524 28.6236 64.1869C28.9909 64.4732 29.2566 64.9359 29.4206 65.5748C29.572 66.1903 29.7028 67.2719 29.8131 68.8194C29.8394 69.2601 29.8838 69.7061 29.9463 70.1574C30.0088 70.6088 30.0909 70.9283 30.1924 71.1159C30.1641 71.3435 30.1992 71.6884 30.2979 72.1505C30.3965 72.6127 30.4878 73.0333 30.5718 73.4124C30.7447 73.9556 30.8848 74.4104 30.9923 74.7768C31.0997 75.1431 31.1725 75.3615 31.2106 75.4319C31.4518 75.8774 32.0556 75.7324 33.0219 74.9968C33.3571 74.6636 33.6013 74.4707 33.7547 74.418C33.9081 74.3652 34.124 74.3999 34.4025 74.5221C34.7874 74.6169 34.972 74.7898 34.9564 75.0409C34.9642 75.2793 34.7546 75.6203 34.3276 76.0638C34.0774 76.4418 33.7721 76.774 33.4116 77.0602C33.0745 77.3337 32.7291 77.5359 32.3754 77.6668C32.0579 77.8085 31.7736 77.8714 31.5225 77.8558ZM37.6007 67.1495C37.4053 67.0127 37.2118 66.9355 37.0204 66.9179C36.8162 66.8768 36.6887 66.8094 36.6379 66.7156C36.5871 66.6218 36.5246 66.5344 36.4503 66.4533C36.3868 66.336 36.2828 66.2559 36.1382 66.2129C35.9448 66.1357 35.7851 65.8128 35.6591 65.2442C35.5204 64.6521 35.4184 63.9037 35.353 62.999C35.2749 62.0709 35.2364 61.0758 35.2375 60.0138C35.3235 59.7246 35.3778 59.3768 35.4003 58.9704C35.4228 58.564 35.4555 58.2885 35.4985 58.1439C35.4477 58.0501 35.4385 57.949 35.4707 57.8405C35.4903 57.7086 35.5469 57.6173 35.6407 57.5665L35.5264 57.3554C35.463 57.2382 35.4605 56.9817 35.5192 56.5861C35.6013 56.1777 35.7176 55.7205 35.8681 55.2144C36.0059 54.6849 36.1681 54.1725 36.3548 53.6772C36.5287 53.1584 36.6949 52.7652 36.8532 52.4975C37.1678 51.9025 37.564 51.4302 38.0418 51.0805C38.543 50.7181 39.0638 50.5877 39.6041 50.6893C39.7125 50.7216 39.8932 50.7753 40.1463 50.8506C40.3993 50.9258 40.6885 51.0118 41.0138 51.1086C41.3499 51.1692 41.6923 51.2415 42.0411 51.3256L43.9711 51.7815L44.2904 53.8831C44.4935 54.9861 44.8559 55.8513 45.3775 56.4785C45.9226 57.0931 46.4873 57.5758 47.0715 57.9266C47.3284 58.121 47.6963 58.2403 48.175 58.2843C48.6771 58.3156 49.1051 58.2658 49.4588 58.1349C49.659 58.0568 49.873 58.0319 50.1006 58.0602C50.3283 58.0886 50.5119 58.2317 50.6516 58.4897C50.7786 58.7242 50.8333 58.9372 50.8157 59.1286C50.7981 59.3201 50.6848 59.5028 50.4757 59.6767C49.7526 60.1896 48.9241 60.3956 47.9901 60.2949C47.0796 60.1815 46.0509 59.7378 44.9039 58.964C44.734 58.8741 44.4653 58.686 44.098 58.3997C43.7414 58.0772 43.5197 57.8637 43.4327 57.7592C43.4024 57.9272 43.3472 58.2452 43.267 58.7132C43.1742 59.1577 43.0955 59.4884 43.031 59.7053C42.2804 62.2953 41.4542 64.2135 40.5523 65.4601C39.6612 66.6705 38.6773 67.2336 37.6007 67.1495ZM37.8002 64.494C37.8891 64.6582 38.1353 64.5249 38.5389 64.094C38.9531 63.6271 39.3264 63.0004 39.6587 62.2139C40.0877 61.1021 40.4786 59.92 40.8314 58.6676C41.2076 57.4024 41.4515 56.2847 41.563 55.3146L41.6511 53.6293C41.1245 53.2169 40.6697 52.9932 40.2868 52.958C39.9145 52.8866 39.6346 52.9017 39.447 53.0033C39.1422 53.1684 38.8373 53.6974 38.5324 54.5904C38.251 55.4706 38.0242 56.5638 37.8521 57.8701C37.6801 59.1763 37.594 60.5572 37.5938 62.013C37.6133 62.6089 37.6499 63.1805 37.7036 63.7276C37.768 64.2386 37.8002 64.494 37.8002 64.494ZM56.9507 63.3574C56.3302 63.7237 55.7645 63.9391 55.2536 64.0036C54.7426 64.068 54.4173 63.9712 54.2776 63.7133C54.2141 63.5961 54.1985 63.4832 54.2307 63.3748C54.263 63.2663 54.2791 63.2121 54.2791 63.2121C54.4471 63.2424 54.5429 63.2512 54.5663 63.2385C54.5898 63.2258 54.5761 63.1726 54.5253 63.0788C54.5253 63.0788 54.6235 62.9801 54.8199 62.7828C55.0163 62.5854 55.2694 62.2968 55.5791 61.9167C56.1956 61.4312 56.6236 61.0175 56.863 60.6756C57.1258 60.321 57.2387 59.9414 57.2016 59.5369C57.188 59.1198 57.081 58.5863 56.8808 57.9366C56.7988 57.6171 56.7177 57.3274 56.6376 57.0675C56.5683 56.7715 56.5082 56.5766 56.4574 56.4828C56.4193 56.4124 56.2279 56.0309 55.8831 55.3382C55.549 54.6093 55.1109 53.8003 54.5688 52.9112C53.9631 51.9049 53.5216 51.1735 53.2442 50.7173C52.9775 50.2248 52.8105 49.8604 52.7431 49.624C52.6864 49.3514 52.6532 49.0661 52.6435 48.7681C52.7295 48.4789 52.7398 48.2459 52.6743 48.0691C52.6196 47.8561 52.5054 47.645 52.3315 47.436C51.8899 47.0686 51.591 46.6846 51.4347 46.284C51.2657 45.86 51.2369 45.5268 51.3483 45.2845C51.5057 44.6231 51.6318 44.1 51.7266 43.715C51.8448 43.3174 51.9279 42.9388 51.9758 42.5793C52.0345 42.1836 52.055 41.7176 52.0375 41.1812C52.1265 39.8897 52.1398 38.6543 52.0774 37.475C52.0023 36.2723 51.8563 35.2748 51.6395 34.4825C51.5887 34.3887 51.5443 34.3066 51.5062 34.2362C51.4681 34.1659 51.449 34.1307 51.449 34.1307C51.4285 33.8689 51.2825 33.5992 51.0109 33.3217C50.7628 33.0315 50.4145 32.7804 49.9661 32.5684C49.5753 32.2948 49.1884 32.1404 48.8055 32.1052C48.4225 32.07 47.8817 32.1354 47.1832 32.3014C46.7699 32.4342 46.488 32.3897 46.3376 32.168C46.1744 31.9227 46.1349 31.6257 46.219 31.2769C46.2112 31.0385 46.3118 30.8324 46.5209 30.6585C46.7534 30.4719 47.006 30.3503 47.2786 30.2937C47.5619 30.2009 47.7822 30.1877 47.9395 30.2542C48.2287 30.3402 48.4554 30.3387 48.6195 30.2498C48.6899 30.2117 48.9175 30.2401 49.3024 30.3349C49.6747 30.4063 50.084 30.5182 50.5305 30.6706C50.977 30.8231 51.3223 30.9848 51.5665 31.1558C51.6984 31.1753 51.8884 31.3302 52.1366 31.6204C52.3954 31.8744 52.6128 32.1358 52.7886 32.4045C53.0114 32.6478 53.1799 32.875 53.2942 33.086C53.4192 33.2609 53.5164 33.4964 53.5857 33.7924C53.6658 34.0523 53.7508 34.4612 53.8406 35.019C54.0965 36.2755 54.2805 37.3433 54.3928 38.2226C54.5158 39.0658 54.5505 39.5777 54.4967 39.7585C54.441 39.8796 54.3726 39.9773 54.2915 40.0515C54.2339 40.1131 54.2304 40.1908 54.2812 40.2846C54.332 40.3784 54.3598 40.6817 54.3647 41.1946C54.3568 41.6841 54.3265 42.2161 54.2737 42.7905C54.2316 43.3289 54.1622 43.7607 54.0654 44.086C54.0224 44.2306 54.0048 44.4221 54.0126 44.6605C54.0312 44.8627 54.0405 44.9638 54.0405 44.9638C54.0405 44.9638 54.0351 44.9819 54.0243 45.0181C54.0009 45.0308 53.9496 45.104 53.8704 45.2379C53.7571 45.4206 53.7512 45.6057 53.8528 45.7933C53.9417 45.9574 54.1698 46.1826 54.5371 46.4689C54.6983 46.6546 54.8702 46.8041 55.0529 46.9174C55.2356 47.0308 55.4246 47.1558 55.62 47.2926C55.7978 47.6209 55.8281 47.8168 55.7108 47.8803C55.4949 48.2095 55.3556 48.5124 55.2931 48.7889C55.254 49.0527 55.3624 49.4488 55.6183 49.9774C55.8742 50.506 56.3314 51.3502 56.9898 52.5099C57.2799 52.9896 57.5656 53.5172 57.8469 54.0927C58.1283 54.6682 58.3661 55.1914 58.5605 55.6623C58.7656 56.0971 58.8711 56.4039 58.8769 56.5827C59.0938 57.375 59.2588 58.0438 59.3721 58.589C59.5088 59.1214 59.5186 59.4194 59.4013 59.4829C59.4013 59.4829 59.3779 59.4956 59.331 59.521C59.2968 59.5699 59.3104 59.6231 59.372 59.6808C59.5498 60.009 59.5444 60.391 59.3558 60.8268C59.1799 61.2859 58.8784 61.7373 58.4514 62.1808C58.0244 62.6243 57.5242 63.0165 56.9507 63.3574Z" fill="#252525"/>
</svg>
